<?xml version="1.0" standalone="no"?>
<!DOCTYPE svg PUBLIC "-//W3C//DTD SVG 20010904//EN"
 "http://www.w3.org/TR/2001/REC-SVG-20010904/DTD/svg10.dtd">
<svg version="1.0" xmlns="http://www.w3.org/2000/svg"
 width="260.000000pt" height="260.000000pt" viewBox="0 0 260.000000 260.000000"
 preserveAspectRatio="xMidYMid meet">
<metadata>
Created by potrace 1.11, written by Peter Selinger 2001-2013
</metadata>
<g transform="translate(0.000000,260.000000) scale(0.100000,-0.100000)"
fill="#000000" stroke="none">
<path d="M1547 2564 c-1 -1 -31 -5 -67 -8 -554 -50 -1028 -502 -1107 -1056
-14 -94 -8 -348 10 -430 89 -415 366 -753 747 -910 304 -126 666 -125 965 2
84 36 225 114 225 125 0 4 -25 44 -57 90 l-56 83 -31 -20 c-79 -53 -238 -121
-316 -137 -167 -34 -331 -37 -450 -9 -127 29 -149 36 -224 70 -220 100 -400
275 -509 491 -144 289 -142 639 8 935 72 143 218 305 355 395 253 165 566 212
860 129 73 -21 177 -65 228 -98 23 -14 45 -26 49 -26 5 0 34 38 65 84 l58 84
-33 20 c-150 92 -339 158 -512 178 -53 6 -204 12 -208 8z"/>
<path d="M1955 1862 c-18 -3 -72 -74 -138 -182 l-19 -30 90 0 89 0 0 -437 0
-438 106 -3 106 -3 0 546 0 545 -37 1 c-20 0 -68 1 -107 2 -38 1 -79 1 -90 -1z"/>
<path d="M1265 1847 c-133 -45 -227 -156 -241 -288 l-6 -57 105 1 106 1 6 37
c11 62 70 109 136 109 65 0 129 -61 129 -123 0 -48 -25 -88 -257 -424 -123
-177 -223 -324 -223 -327 0 -3 132 -6 294 -6 l293 0 49 71 c27 39 59 85 70
103 l21 31 -164 5 -164 5 130 188 c71 103 136 207 145 232 23 70 17 187 -15
255 -33 71 -98 136 -168 168 -67 31 -183 39 -246 19z"/>
<path d="M2212 798 c2 -19 10 -23 41 -24 32 -1 37 2 37 23 0 12 -4 23 -10 23
-5 0 -10 -6 -10 -12 0 -8 -3 -9 -8 -3 -4 6 -17 11 -30 13 -19 2 -23 -2 -20
-20z"/>
</g>
</svg>
